{
  "accessors": [
    {
      "bufferView": 2,
      "componentType": 5126,
      "count": 19253,
      "max": [
        0.298241525888443,
        0.8359206914901733,
        0.24306093156337738
      ],
      "min": [
        -0.298241525888443,
        0.0006930825766175985,
        -0.24306093156337738
      ],
      "type": "VEC3"
    },
    {
      "bufferView": 2,
      "byteOffset": 231036,
      "componentType": 5126,
      "count": 19253,
      "max": [
        0.9999989867210388,
        0.9999998211860657,
        0.9999984502792358
      ],
      "min": [
        -1.0,
        -0.9999905228614807,
        -0.9996196031570435
      ],
      "type": "VEC3"
    },
    {
      "bufferView": 1,
      "componentType": 5126,
      "count": 19253,
      "max": [
        0.9977806806564331,
        0.9958258867263794
      ],
      "min": [
        0.002080543665215373,
        0.41700226068496704
      ],
      "type": "VEC2"
    },
    {
      "bufferView": 1,
      "byteOffset": 154024,
      "componentType": 5126,
      "count": 19253,
      "max": [
        0.9977806806564331,
        0.9958258867263794
      ],
      "min": [
        0.002080543665215373,
        0.41700226068496704
      ],
      "type": "VEC2"
    },
    {
      "bufferView": 1,
      "byteOffset": 308048,
      "componentType": 5126,
      "count": 19253,
      "max": [
        0.9977806806564331,
        0.9958258867263794
      ],
      "min": [
        0.002080543665215373,
        0.41700226068496704
      ],
      "type": "VEC2"
    },
    {
      "bufferView": 1,
      "byteOffset": 462072,
      "componentType": 5126,
      "count": 19253,
      "max": [
        0.9977806806564331,
        0.9958258867263794
      ],
      "min": [
        0.002080543665215373,
        0.41700226068496704
      ],
      "type": "VEC2"
    },
    {
      "bufferView": 1,
      "byteOffset": 616096,
      "componentType": 5126,
      "count": 19253,
      "max": [
        0.9977806806564331,
        0.9958258867263794
      ],
      "min": [
        0.002080543665215373,
        0.41700226068496704
      ],
      "type": "VEC2"
    },
    {
      "bufferView": 1,
      "byteOffset": 770120,
      "componentType": 5126,
      "count": 19253,
      "max": [
        0.9977806806564331,
        0.9958258867263794
      ],
      "min": [
        0.002080543665215373,
        0.41700226068496704
      ],
      "type": "VEC2"
    },
    {
      "bufferView": 1,
      "byteOffset": 924144,
      "componentType": 5126,
      "count": 19253,
      "max": [
        0.9977806806564331,
        0.9958258867263794
      ],
      "min": [
        0.002080543665215373,
        0.41700226068496704
      ],
      "type": "VEC2"
    },
    {
      "bufferView": 1,
      "byteOffset": 1078168,
      "componentType": 5126,
      "count": 19253,
      "max": [
        0.9977806806564331,
        0.9958258867263794
      ],
      "min": [
        0.002080543665215373,
        0.41700226068496704
      ],
      "type": "VEC2"
    },
    {
      "bufferView": 1,
      "byteOffset": 1232192,
      "componentType": 5126,
      "count": 19253,
      "max": [
        0.9977806806564331,
        0.9958258867263794
      ],
      "min": [
        0.002080543665215373,
        0.41700226068496704
      ],
      "type": "VEC2"
    },
    {
      "bufferView": 1,
      "byteOffset": 1386216,
      "componentType": 5126,
      "count": 19253,
      "max": [
        0.9977806806564331,
        0.9958258867263794
      ],
      "min": [
        0.002080543665215373,
        0.41700226068496704
      ],
      "type": "VEC2"
    },
    {
      "bufferView": 0,
      "componentType": 5125,
      "count": 65784,
      "type": "SCALAR"
    }
  ],
  "asset": {
    "extras": {
      "author": "JFN (https://sketchfab.com/db4)",
      "license": "CC-BY-4.0 (http://creativecommons.org/licenses/by/4.0/)",
      "source": "https://sketchfab.com/3d-models/art-magazines-on-old-cabinet-scaniverse-lidar-9868923cd16b4c4db3bd834d8e18fe2e",
      "title": "Art Magazines on Old Cabinet (Scaniverse LIDAR)"
    },
    "generator": "Sketchfab-14.32.1",
    "version": "2.0"
  },
  "bufferViews": [
    {
      "buffer": 0,
      "byteLength": 263136,
      "name": "floatBufferViews",
      "target": 34963
    },
    {
      "buffer": 0,
      "byteLength": 1540240,
      "byteOffset": 263136,
      "byteStride": 8,
      "name": "floatBufferViews",
      "target": 34962
    },
    {
      "buffer": 0,
      "byteLength": 462072,
      "byteOffset": 1803376,
      "byteStride": 12,
      "name": "floatBufferViews",
      "target": 34962
    }
  ],
  "buffers": [
    {
      "byteLength": 2265448,
      "uri": "scene.bin"
    }
  ],
  "extensionsUsed": [
    "KHR_materials_unlit"
  ],
  "images": [
    {
      "uri": "textures/main_baseColor.jpeg"
    }
  ],
  "materials": [
    {
      "doubleSided": true,
      "extensions": {
        "KHR_materials_unlit": {}
      },
      "name": "main",
      "pbrMetallicRoughness": {
        "baseColorTexture": {
          "index": 0
        },
        "metallicFactor": 0.0
      }
    }
  ],
  "meshes": [
    {
      "name": "mesh_main_0",
      "primitives": [
        {
          "attributes": {
            "NORMAL": 1,
            "POSITION": 0,
            "TEXCOORD_0": 2,
            "TEXCOORD_1": 3,
            "TEXCOORD_2": 4,
            "TEXCOORD_3": 5,
            "TEXCOORD_4": 6,
            "TEXCOORD_5": 7,
            "TEXCOORD_6": 8,
            "TEXCOORD_7": 9,
            "TEXCOORD_8": 10,
            "TEXCOORD_9": 11
          },
          "indices": 12,
          "material": 0,
          "mode": 4
        }
      ]
    }
  ],
  "nodes": [
    {
      "children": [
        1
      ],
      "matrix": [
        1.0,
        0.0,
        0.0,
        0.0,
        0.0,
        2.220446049250313e-16,
        -1.0,
        0.0,
        0.0,
        1.0,
        2.220446049250313e-16,
        0.0,
        0.0,
        0.0,
        0.0,
        1.0
      ],
      "name": "Sketchfab_model"
    },
    {
      "children": [
        2
      ],
      "matrix": [
        1.0,
        0.0,
        0.0,
        0.0,
        0.0,
        0.0,
        1.0,
        0.0,
        0.0,
        -1.0,
        0.0,
        0.0,
        0.0,
        0.0,
        0.0,
        1.0
      ],
      "name": "e44601a79df54a8c9f911ac2f5bc8b7c.fbx"
    },
    {
      "children": [
        3
      ],
      "name": "RootNode"
    },
    {
      "children": [
        4
      ],
      "name": "mesh"
    },
    {
      "mesh": 0,
      "name": "mesh_main_0"
    }
  ],
  "samplers": [
    {
      "magFilter": 9729,
      "minFilter": 9987,
      "wrapS": 10497,
      "wrapT": 10497
    }
  ],
  "scene": 0,
  "scenes": [
    {
      "name": "Sketchfab_Scene",
      "nodes": [
        0
      ]
    }
  ],
  "textures": [
    {
      "sampler": 0,
      "source": 0
    }
  ]
}
